<svg width="1584" height="396" viewBox="0 0 1584 396" fill="none" xmlns="http://www.w3.org/2000/svg">
<rect width="1584" height="396" fill="#F5F5F5"/>
<g id="Awesome banner" clip-path="url(#clip0_0_1)">
<rect width="1584" height="396" fill="url(#paint0_linear_0_1)"/>
<ellipse id="Ellipse 2" cx="323" cy="64" rx="285" ry="288" fill="url(#paint1_linear_0_1)" fill-opacity="0.1"/>
<g id="copyright">
<path d="M75.95 334.52L72.30 334.52L72.30 311.16L77.20 311.16L83.70 330.04Q83.60 329.02 83.50 327.62Q83.41 326.23 83.33 324.79Q83.25 323.35 83.25 322.23L83.25 311.16L86.90 311.16L86.90 334.52L82 334.52L75.57 315.64Q75.63 316.57 75.73 317.88Q75.82 319.19 75.89 320.57Q75.95 321.94 75.95 323.10L75.95 334.52M98.80 334.84Q96.46 334.84 94.67 333.96Q92.88 333.08 91.89 331.53Q90.90 329.98 90.90 327.93Q90.90 325.78 92.13 324.18Q93.36 322.58 95.34 322.17L95.34 322.10Q93.65 321.75 92.61 320.38Q91.57 319 91.57 317.11Q91.57 315.26 92.48 313.85Q93.39 312.44 95.02 311.64Q96.66 310.84 98.80 310.84Q100.94 310.84 102.59 311.64Q104.24 312.44 105.15 313.85Q106.06 315.26 106.06 317.11Q106.06 319 105.01 320.38Q103.95 321.75 102.26 322.10L102.26 322.17Q104.24 322.58 105.47 324.18Q106.70 325.78 106.70 327.93Q106.70 329.98 105.71 331.53Q104.72 333.08 102.93 333.96Q101.14 334.84 98.80 334.84M98.80 320.73Q100.30 320.73 101.23 319.82Q102.16 318.90 102.16 317.46Q102.16 315.99 101.23 315.08Q100.30 314.17 98.80 314.17Q97.30 314.17 96.37 315.08Q95.44 315.99 95.44 317.46Q95.44 318.90 96.37 319.82Q97.30 320.73 98.80 320.73M98.80 331.45Q100.56 331.45 101.68 330.42Q102.80 329.40 102.80 327.74Q102.80 326.04 101.68 325Q100.56 323.96 98.80 323.96Q97.04 323.96 95.92 325Q94.80 326.04 94.80 327.74Q94.80 329.40 95.92 330.42Q97.04 331.45 98.80 331.45M114.35 334.52L110.70 334.52L110.70 311.16L115.60 311.16L122.10 330.04Q122 329.02 121.90 327.62Q121.81 326.23 121.73 324.79Q121.65 323.35 121.65 322.23L121.65 311.16L125.30 311.16L125.30 334.52L120.40 334.52L113.97 315.64Q114.03 316.57 114.13 317.88Q114.22 319.19 114.29 320.57Q114.35 321.94 114.35 323.10" fill="white" fill-opacity="0.9"/>
<path d="M161.48 325.24L151.24 325.24L151.24 322.68L161.48 322.68" fill="white" fill-opacity="0.9"/>
<path d="M195.02 334.84Q191.82 334.84 189.96 333.05Q188.11 331.26 188.11 328.12L188.11 317.56Q188.11 314.42 189.96 312.63Q191.82 310.84 195.02 310.84Q198.15 310.84 200.01 312.65Q201.87 314.46 201.87 317.56L198.99 317.56Q198.99 315.58 197.95 314.50Q196.91 313.43 195.02 313.43Q193.13 313.43 192.06 314.50Q190.99 315.58 190.99 317.56L190.99 328.12Q190.99 330.10 192.06 331.18Q193.13 332.25 195.02 332.25Q196.91 332.25 197.95 331.18Q198.99 330.10 198.99 328.12L201.87 328.12Q201.87 331.22 200.01 333.03Q198.15 334.84 195.02 334.84" fill="white" fill-opacity="0.9"/>
<path d="M213.96 334.84Q210.83 334.84 209 333.02Q207.18 331.19 207.18 327.80L207.18 317.88Q207.18 314.49 209 312.66Q210.83 310.84 213.96 310.84Q217.10 310.84 218.92 312.66Q220.75 314.49 220.75 317.85L220.75 327.80Q220.75 331.19 218.92 333.02Q217.10 334.84 213.96 334.84M213.96 332.25Q215.85 332.25 216.86 331.18Q217.87 330.10 217.87 328.12L217.87 317.56Q217.87 315.58 216.86 314.50Q215.85 313.43 213.96 313.43Q212.11 313.43 211.08 314.50Q210.06 315.58 210.06 317.56L210.06 328.12Q210.06 330.10 211.08 331.18Q212.11 332.25 213.96 332.25" fill="white" fill-opacity="0.9"/>
<path d="M228.65 334.52L225.87 334.52L225.87 311.16L230.12 311.16L233.10 321.27L236.20 311.16L240.46 311.16L240.46 334.52L237.67 334.52L237.67 323.48Q237.67 321.91 237.72 319.88Q237.77 317.85 237.87 315.77Q237.96 313.69 238.09 312.02L234.31 324.09L231.82 324.09L228.20 312.31Q228.46 314.68 228.55 317.50Q228.65 320.31 228.65 323.48" fill="white" fill-opacity="0.9"/>
<path d="M247.85 334.52L245.07 334.52L245.07 311.16L249.32 311.16L252.30 321.27L255.40 311.16L259.66 311.16L259.66 334.52L256.87 334.52L256.87 323.48Q256.87 321.91 256.92 319.88Q256.97 317.85 257.07 315.77Q257.16 313.69 257.29 312.02L253.51 324.09L251.02 324.09L247.40 312.31Q247.66 314.68 247.75 317.50Q247.85 320.31 247.85 323.48" fill="white" fill-opacity="0.9"/>
<path d="M271.56 334.84Q268.30 334.84 266.57 333.03Q264.84 331.22 264.84 328.12L264.84 311.16L267.72 311.16L267.72 328.12Q267.72 330.04 268.67 331.16Q269.61 332.28 271.56 332.28Q273.48 332.28 274.44 331.16Q275.40 330.04 275.40 328.12L275.40 311.16L278.28 311.16L278.28 328.12Q278.28 331.26 276.57 333.05Q274.86 334.84 271.56 334.84" fill="white" fill-opacity="0.9"/>
<path d="M286.83 334.52L284.04 334.52L284.04 311.16L287.88 311.16L295.02 331.16Q294.95 330.36 294.87 329.19Q294.79 328.02 294.75 326.73Q294.70 325.43 294.70 324.28L294.70 311.16L297.48 311.16L297.48 334.52L293.64 334.52L286.54 314.52Q286.60 315.29 286.67 316.46Q286.73 317.62 286.78 318.92Q286.83 320.22 286.83 321.40" fill="white" fill-opacity="0.9"/>
<path d="M316.20 334.52L303.72 334.52L303.72 331.90L308.49 331.90L308.49 313.78L303.72 313.78L303.72 311.16L316.20 311.16L316.20 313.78L311.43 313.78L311.43 331.90L316.20 331.90" fill="white" fill-opacity="0.9"/>
<path d="M330.60 334.52L327.72 334.52L327.72 313.78L321.32 313.78L321.32 311.16L337 311.16L337 313.78L330.60 313.78" fill="white" fill-opacity="0.9"/>
<path d="M349.80 334.52L346.92 334.52L346.92 325.78L339.88 311.16L342.95 311.16L347.50 320.76Q347.88 321.56 348.11 322.12Q348.33 322.68 348.39 322.94Q348.46 322.68 348.70 322.12Q348.94 321.56 349.32 320.76L353.87 311.16L356.84 311.16L349.80 325.78" fill="white" fill-opacity="0.9"/>
<path d="M382.83 334.52L380.04 334.52L380.04 311.16L383.88 311.16L391.02 331.16Q390.95 330.36 390.87 329.19Q390.79 328.02 390.75 326.73Q390.70 325.43 390.70 324.28L390.70 311.16L393.48 311.16L393.48 334.52L389.64 334.52L382.54 314.52Q382.60 315.29 382.67 316.46Q382.73 317.62 382.78 318.92Q382.83 320.22 382.83 321.40" fill="white" fill-opacity="0.9"/>
<path d="M405.96 334.84Q402.83 334.84 401 333.02Q399.18 331.19 399.18 327.80L399.18 317.88Q399.18 314.49 401 312.66Q402.83 310.84 405.96 310.84Q409.10 310.84 410.92 312.66Q412.75 314.49 412.75 317.85L412.75 327.80Q412.75 331.19 410.92 333.02Q409.10 334.84 405.96 334.84M405.96 332.25Q407.85 332.25 408.86 331.18Q409.87 330.10 409.87 328.12L409.87 317.56Q409.87 315.58 408.86 314.50Q407.85 313.43 405.96 313.43Q404.11 313.43 403.08 314.50Q402.06 315.58 402.06 317.56L402.06 328.12Q402.06 330.10 403.08 331.18Q404.11 332.25 405.96 332.25" fill="white" fill-opacity="0.9"/>
<path d="M424.55 334.52L418.51 334.52L418.51 311.16L424.55 311.16Q426.83 311.16 428.47 312.02Q430.12 312.89 431.03 314.46Q431.95 316.02 431.95 318.17L431.95 327.48Q431.95 329.62 431.03 331.21Q430.12 332.79 428.47 333.66Q426.83 334.52 424.55 334.52M421.39 313.72L421.39 331.96L424.55 331.96Q426.67 331.96 427.87 330.78Q429.07 329.59 429.07 327.48L429.07 318.17Q429.07 316.09 427.87 314.90Q426.67 313.72 424.55 313.72" fill="white" fill-opacity="0.9"/>
<path d="M451.40 334.52L437.96 334.52L437.96 311.16L451.40 311.16L451.40 313.78L440.81 313.78L440.81 321.02L450.28 321.02L450.28 323.58L440.81 323.58L440.81 331.90L451.40 331.90" fill="white" fill-opacity="0.9"/>
<path d="M463.69 334.84Q460.30 334.84 458.28 333.05Q456.27 331.26 456.27 328.12L459.15 328.12Q459.15 330.07 460.39 331.18Q461.64 332.28 463.69 332.28Q465.67 332.28 466.86 331.13Q468.04 329.98 468.04 328.12Q468.04 326.71 467.29 325.67Q466.54 324.63 465.13 324.25L461.58 323.26Q459.37 322.62 458.11 320.97Q456.84 319.32 456.84 317.08Q456.84 315.22 457.67 313.82Q458.51 312.41 460.01 311.62Q461.51 310.84 463.47 310.84Q465.45 310.84 466.97 311.62Q468.49 312.41 469.35 313.80Q470.22 315.19 470.22 317.02L467.34 317.02Q467.34 315.42 466.25 314.41Q465.16 313.40 463.47 313.40Q461.77 313.40 460.71 314.41Q459.66 315.42 459.66 317.02Q459.66 318.30 460.35 319.21Q461.03 320.12 462.28 320.47L465.93 321.50Q468.27 322.14 469.56 323.91Q470.86 325.69 470.86 328.12Q470.86 331.19 468.91 333.02Q466.95 334.84 463.69 334.84" fill="white" fill-opacity="0.9"/>
</g>
<path d="M73.41 197.64L71.20 197.64L75.76 180.12L78.66 180.12L83.20 197.64L81.02 197.64L79.86 192.98L74.56 192.98L73.41 197.64M76.34 185.74L74.99 191.16L79.41 191.16L78.06 185.76Q77.68 184.22 77.46 183.19Q77.25 182.16 77.20 181.85Q77.15 182.16 76.94 183.19Q76.72 184.22 76.34 185.74" fill="white" fill-opacity="0.7"/>
<path d="M88.77 197.64L86.61 197.64L86.61 180.12L92.25 180.12Q94.70 180.12 96.15 181.52Q97.60 182.93 97.60 185.28Q97.60 187.63 96.15 189.04Q94.70 190.44 92.25 190.44L88.77 190.44L88.77 197.64M88.77 182.06L88.77 188.50L92.25 188.50Q93.66 188.50 94.52 187.62Q95.37 186.74 95.37 185.28Q95.37 183.79 94.52 182.93Q93.66 182.06 92.25 182.06" fill="white" fill-opacity="0.7"/>
<path d="M110.68 197.64L101.32 197.64L101.32 195.67L104.90 195.67L104.90 182.09L101.32 182.09L101.32 180.12L110.68 180.12L110.68 182.09L107.10 182.09L107.10 195.67L110.68 195.67" fill="white" fill-opacity="0.7"/>
<path d="M134.80 197.88Q132.47 197.88 131.04 196.48Q129.62 195.07 129.62 192.60L129.62 189.48Q129.62 187.01 131.04 185.60Q132.47 184.20 134.80 184.20Q136.36 184.20 137.52 184.82Q138.69 185.45 139.34 186.58Q139.98 187.70 139.98 189.24L139.98 191.59L131.73 191.59L131.73 192.84Q131.73 194.30 132.57 195.16Q133.41 196.01 134.80 196.01QNaN 196.01 136.78 195.54Q137.56 195.07 137.73 194.28L139.89 194.28Q139.67 195.94 138.28 196.91Q136.89 197.88 134.80 197.88M131.73 189.24L131.73 189.91L137.87 189.91L137.87 189.24Q137.87 187.68 137.07 186.83Q136.26 185.98 134.80 185.98Q133.34 185.98 132.53 186.83Q131.73 187.68 131.73 189.24" fill="white" fill-opacity="0.7"/>
<path d="M145.74 197.64L143.20 197.64L147.88 190.85L143.49 184.44L146.03 184.44L148.65 188.52Q148.82 188.78 148.97 189.10Q149.13 189.41 149.22 189.60Q149.30 189.41 149.45 189.10Q149.61 188.78 149.78 188.52L152.39 184.44L154.94 184.44L150.54 190.87L155.20 197.64L152.66 197.64L149.82 193.32Q149.66 193.06 149.50 192.71Q149.34 192.36 149.22 192.14Q149.13 192.36 148.95 192.71Q148.77 193.06 148.58 193.32" fill="white" fill-opacity="0.7"/>
<path d="M160.77 201.96L158.61 201.96L158.61 184.44L160.77 184.44L160.77 186.96L160.79 186.96Q160.96 185.66 161.92 184.93Q162.88 184.20 164.37 184.20Q166.36 184.20 167.54 185.51Q168.71 186.82 168.71 189.10L168.71 192.96Q168.71 195.24 167.54 196.56Q166.36 197.88 164.37 197.88Q162.88 197.88 161.92 197.14Q160.96 196.39 160.79 195.12L160.72 195.12L160.77 198.12L160.77 201.96M163.65 196.01Q165.02 196.01 165.78 195.29Q166.55 194.57 166.55 192.96L166.55 189.12Q166.55 187.49 165.78 186.78Q165.02 186.07 163.65 186.07Q162.33 186.07 161.55 186.91Q160.77 187.75 160.77 189.24L160.77 192.84Q160.77 194.33 161.55 195.17Q162.33 196.01 163.65 196.01" fill="white" fill-opacity="0.7"/>
<path d="MNaN 197.83Q175.62 197.83 174.22 196.44Q172.82 195.05 172.82 192.55L172.82 189.53Q172.82 187.01 174.21 185.63Q175.60 184.25 NaN 184.25Q180.40 184.25 181.79 185.63Q183.18 187.01 183.18 189.53L183.18 192.55Q183.18 195.05 181.78 196.44Q180.38 197.83 NaN 197.83MNaN 195.91Q179.42 195.91 180.22 195.12Q181.02 194.33 181.02 192.79L181.02 189.29Q181.02 187.75 180.22 186.96Q179.42 186.17 NaN 186.17Q176.61 186.17 175.79 186.96Q174.98 187.75 174.98 189.29L174.98 192.79Q174.98 194.33 175.79 195.12Q176.61 195.91 NaN 195.91" fill="white" fill-opacity="0.7"/>
<path d="M192.93 197.83L191.87 197.83Q189.66 197.83 188.45 196.84Q187.24 195.84 187.24 194.02L189.40 194.02Q189.40 194.93 190.05 195.44Q190.70 195.96 191.87 195.96L192.93 195.96Q194.13 195.96 194.79 195.43Q195.45 194.90 195.45 193.94Q195.45 192.24 193.89 192.02L190.24 191.50Q188.90 191.30 188.15 190.38Q187.41 189.46 187.41 187.94Q187.41 186.22 188.60 185.23Q189.78 184.25 191.87 184.25L192.93 184.25Q194.85 184.25 196.06 185.20Q197.27 186.14 197.37 187.68L195.18 187.68Q195.14 186.98 194.52 186.53Q193.91 186.07 192.93 186.07L191.87 186.07Q190.77 186.07 190.14 186.58Q189.52 187.08 189.52 187.94Q189.52 189.34 190.79 189.53L194.20 190.01Q197.56 190.49 197.56 193.94Q197.56 195.79 196.35 196.81Q195.14 197.83 192.93 197.83" fill="white" fill-opacity="0.7"/>
<path d="M212.92 197.64L201.64 197.64L201.64 195.67L206.32 195.67L206.32 186.41L202.12 186.41L202.12 184.44L208.48 184.44L208.48 195.67L212.92 195.67L212.92 197.64M207.16 182.06Q206.37 182.06 205.91 181.66Q205.46 181.25 205.46 180.55Q205.46 179.83 205.91 179.41Q206.37 178.99 207.16 178.99Q207.95 178.99 208.41 179.41Q208.86 179.83 208.86 180.55Q208.86 181.25 208.41 181.66Q207.95 182.06 207.16 182.06" fill="white" fill-opacity="0.7"/>
<path d="M218.37 197.64L216.21 197.64L216.21 184.44L218.37 184.44L218.37 186.96L218.39 186.96Q218.56 185.64 219.47 184.92Q220.38 184.20 221.90 184.20Q223.89 184.20 225.06 185.42Q226.24 186.65 226.24 188.76L226.24 197.64L224.08 197.64L224.08 189.14Q224.08 187.63 223.32 186.83Q222.57 186.02 221.27 186.02Q219.93 186.02 219.15 186.86Q218.37 187.70 218.37 189.24" fill="white" fill-opacity="0.7"/>
<path d="M235.96 201.96L232.26 201.96L232.26 199.99L235.98 199.99Q237.11 199.99 237.76 199.36Q238.41 198.72 238.41 197.64L238.41 196.44L238.46 194.28L238.38 194.28Q238.19 195.46 237.26 196.09Q236.32 196.73 234.90 196.73Q232.86 196.73 231.69 195.43Q230.51 194.14 230.51 191.88L230.51 189.10Q230.51 186.84 231.69 185.52Q232.86 184.20 234.90 184.20Q236.32 184.20 237.26 184.87Q238.19 185.54 238.38 186.72L238.43 186.72L238.43 184.44L240.57 184.44L240.57 197.64Q240.57 199.63 239.33 200.80Q238.10 201.96 235.96 201.96M235.55 194.93Q236.90 194.93 237.66 194.09Q238.43 193.25 238.43 191.76L238.43 189.24Q238.43 187.75 237.66 186.91Q236.90 186.07 235.55 186.07Q234.18 186.07 233.43 186.86Q232.67 187.66 232.67 189L232.67 192Q232.67 193.34 233.43 194.14Q234.18 194.93 235.55 194.93" fill="white" fill-opacity="0.7"/>
<path d="M263.63 197.88Q261.66 197.88 260.48 196.56Q259.29 195.24 259.29 192.98L259.29 189.12Q259.29 186.84 260.46 185.52Q261.64 184.20 263.63 184.20Q265.12 184.20 266.09 184.94Q267.06 185.69 267.26 186.96L267.28 186.96L267.23 183.96L267.23 180.12L269.39 180.12L269.39 197.64L267.23 197.64L267.23 195.12L267.21 195.12Q267.04 196.42 266.08 197.15Q265.12 197.88 263.63 197.88M264.35 196.01Q265.70 196.01 266.46 195.17Q267.23 194.33 267.23 192.84L267.23 189.24Q267.23 187.75 266.46 186.91Q265.70 186.07 264.35 186.07Q262.98 186.07 262.22 186.78Q261.45 187.49 261.45 189.12L261.45 192.96Q261.45 194.57 262.22 195.29Q262.98 196.01 264.35 196.01" fill="white" fill-opacity="0.7"/>
<path d="M278.80 197.88Q276.47 197.88 275.04 196.48Q273.62 195.07 273.62 192.60L273.62 189.48Q273.62 187.01 275.04 185.60Q276.47 184.20 278.80 184.20Q280.36 184.20 281.52 184.82Q282.69 185.45 283.34 186.58Q283.98 187.70 283.98 189.24L283.98 191.59L275.73 191.59L275.73 192.84Q275.73 194.30 276.57 195.16Q277.41 196.01 278.80 196.01Q280 196.01 280.78 195.54Q281.56 195.07 281.73 194.28L283.89 194.28Q283.67 195.94 282.28 196.91Q280.89 197.88 278.80 197.88M275.73 189.24L275.73 189.91L281.87 189.91L281.87 189.24Q281.87 187.68 281.07 186.83Q280.26 185.98 278.80 185.98Q277.34 185.98 276.53 186.83Q275.73 187.68 275.73 189.24" fill="white" fill-opacity="0.7"/>
<path d="M298.36 197.64L294.52 197.64Q292.89 197.64 291.90 196.69Q290.92 195.74 290.92 194.16L290.92 186.41L287.13 186.41L287.13 184.44L290.92 184.44L290.92 180.72L293.08 180.72L293.08 184.44L298.48 184.44L298.48 186.41L293.08 186.41L293.08 194.16Q293.08 194.83 293.48 195.25Q293.87 195.67 294.52 195.67L298.36 195.67" fill="white" fill-opacity="0.7"/>
<path d="M306.45 197.88Q304.41 197.88 303.21 196.74Q302.01 195.60 302.01 193.75Q302.01 192.53 302.56 191.62Q303.11 190.70 304.10 190.19Q305.08 189.67 306.35 189.67L310.43 189.67L310.43 188.64Q310.43 186.07 307.62 186.07Q306.38 186.07 305.61 186.53Q304.84 186.98 304.79 187.80L302.63 187.80Q302.75 186.24 304.08 185.22Q305.42 184.20 307.62 184.20Q310.02 184.20 311.31 185.35Q312.59 186.50 312.59 188.57L312.59 197.64L310.46 197.64L310.46 195.24L310.41 195.24Q310.22 196.46 309.18 197.17Q308.15 197.88 306.45 197.88M306.98 196.06Q308.56 196.06 309.50 195.29Q310.43 194.52 310.43 193.20L310.43 191.35L306.59 191.35Q305.54 191.35 304.88 191.99Q304.22 192.62 304.22 193.68Q304.22 194.78 304.95 195.42Q305.68 196.06 306.98 196.06" fill="white" fill-opacity="0.7"/>
<path d="M328.12 197.64L316.84 197.64L316.84 195.67L321.52 195.67L321.52 186.41L317.32 186.41L317.32 184.44L323.68 184.44L323.68 195.67L328.12 195.67L328.12 197.64M322.36 182.06Q321.57 182.06 321.11 181.66Q320.66 181.25 320.66 180.55Q320.66 179.83 321.11 179.41Q321.57 178.99 322.36 178.99Q323.15 178.99 323.61 179.41Q324.06 179.83 324.06 180.55Q324.06 181.25 323.61 181.66Q323.15 182.06 322.36 182.06" fill="white" fill-opacity="0.7"/>
<path d="M342.40 197.64L338.32 197.64Q336.57 197.64 335.52 196.62Q334.48 195.60 334.48 193.92L334.48 182.09L329.92 182.09L329.92 180.12L336.64 180.12L336.64 193.92Q336.64 194.74 337.10 195.20Q337.55 195.67 338.32 195.67L342.40 195.67" fill="white" fill-opacity="0.7"/>
<path d="M351.33 197.83L350.27 197.83Q348.06 197.83 346.85 196.84Q345.64 195.84 345.64 194.02L347.80 194.02Q347.80 194.93 348.45 195.44Q349.10 195.96 350.27 195.96L351.33 195.96Q352.53 195.96 353.19 195.43Q353.85 194.90 353.85 193.94Q353.85 192.24 352.29 192.02L348.64 191.50Q347.30 191.30 346.55 190.38Q345.81 189.46 345.81 187.94Q345.81 186.22 347 185.23Q348.18 184.25 350.27 184.25L351.33 184.25Q353.25 184.25 354.46 185.20Q355.67 186.14 355.77 187.68L353.58 187.68Q353.54 186.98 352.92 186.53Q352.31 186.07 351.33 186.07L350.27 186.07Q349.17 186.07 348.54 186.58Q347.92 187.08 347.92 187.94Q347.92 189.34 349.19 189.53L352.60 190.01Q355.96 190.49 355.96 193.94Q355.96 195.79 354.75 196.81Q353.54 197.83 351.33 197.83" fill="white" fill-opacity="0.7"/>
<path d="M379.60 197.83Q377.22 197.83 375.82 196.44Q374.42 195.05 374.42 192.55L374.42 189.53Q374.42 187.01 375.81 185.63Q377.20 184.25 379.60 184.25Q382 184.25 383.39 185.63Q384.78 187.01 384.78 189.53L384.78 192.55Q384.78 195.05 383.38 196.44Q381.98 197.83 379.60 197.83M379.60 195.91Q381.02 195.91 381.82 195.12Q382.62 194.33 382.62 192.79L382.62 189.29Q382.62 187.75 381.82 186.96Q381.02 186.17 379.60 186.17Q378.21 186.17 377.39 186.96Q376.58 187.75 376.58 189.29L376.58 192.79Q376.58 194.33 377.39 195.12Q378.21 195.91 379.60 195.91" fill="white" fill-opacity="0.7"/>
<path d="M394.12 197.64L391.96 197.64L391.96 188.21L388.12 188.21L388.12 186.24L391.96 186.24L391.96 183.48Q391.96 181.92 392.94 181.02Q393.93 180.12 395.66 180.12L399.52 180.12L399.52 182.09L395.66 182.09Q394.12 182.09 394.12 183.48L394.12 186.24L399.52 186.24L399.52 188.21L394.12 188.21" fill="white" fill-opacity="0.7"/>
<path d="M427.96 197.64L424.12 197.64Q422.49 197.64 421.50 196.69Q420.52 195.74 420.52 194.16L420.52 186.41L416.73 186.41L416.73 184.44L420.52 184.44L420.52 180.72L422.68 180.72L422.68 184.44L428.08 184.44L428.08 186.41L422.68 186.41L422.68 194.16Q422.68 194.83 423.08 195.25Q423.47 195.67 424.12 195.67L427.96 195.67" fill="white" fill-opacity="0.7"/>
<path d="M434.37 197.64L432.21 197.64L432.21 180.12L434.37 180.12L434.37 186.96L434.39 186.96Q434.56 185.64 435.47 184.92Q436.38 184.20 437.90 184.20Q439.89 184.20 441.06 185.42Q442.24 186.65 442.24 188.76L442.24 197.64L440.08 197.64L440.08 189.12Q440.08 187.63 439.32 186.83Q438.57 186.02 437.27 186.02Q435.93 186.02 435.15 186.86Q434.37 187.70 434.37 189.24" fill="white" fill-opacity="0.7"/>
<path d="M451.60 197.88Q449.27 197.88 447.84 196.48Q446.42 195.07 446.42 192.60L446.42 189.48Q446.42 187.01 447.84 185.60Q449.27 184.20 451.60 184.20Q453.16 184.20 454.32 184.82Q455.49 185.45 456.14 186.58Q456.78 187.70 456.78 189.24L456.78 191.59L448.53 191.59L448.53 192.84Q448.53 194.30 449.37 195.16Q450.21 196.01 451.60 196.01Q452.80 196.01 453.58 195.54Q454.36 195.07 454.53 194.28L456.69 194.28Q456.47 195.94 455.08 196.91Q453.69 197.88 451.60 197.88M448.53 189.24L448.53 189.91L454.67 189.91L454.67 189.24Q454.67 187.68 453.87 186.83Q453.06 185.98 451.60 185.98Q450.14 185.98 449.33 186.83Q448.53 187.68 448.53 189.24" fill="white" fill-opacity="0.7"/>
<path d="M481.82 197.64L478.98 197.64L474.50 184.44L476.82 184.44L479.70 193.32Q479.97 194.11 480.16 194.84Q480.35 195.58 480.45 195.98Q480.57 195.58 480.74 194.84Q480.90 194.11 481.14 193.32L484.02 184.44L486.30 184.44" fill="white" fill-opacity="0.7"/>
<path d="M493.65 197.88Q491.61 197.88 490.41 196.74Q489.21 195.60 489.21 193.75Q489.21 192.53 489.76 191.62Q490.31 190.70 491.30 190.19Q492.28 189.67 493.55 189.67L497.63 189.67L497.63 188.64Q497.63 186.07 494.82 186.07Q493.58 186.07 492.81 186.53Q492.04 186.98 491.99 187.80L489.83 187.80Q489.95 186.24 491.28 185.22Q492.62 184.20 494.82 184.20Q497.22 184.20 498.51 185.35Q499.79 186.50 499.79 188.57L499.79 197.64L497.66 197.64L497.66 195.24L497.61 195.24Q497.42 196.46 496.38 197.17Q495.35 197.88 493.65 197.88M494.18 196.06Q495.76 196.06 496.70 195.29Q497.63 194.52 497.63 193.20L497.63 191.35L493.79 191.35Q492.74 191.35 492.08 191.99Q491.42 192.62 491.42 193.68Q491.42 194.78 492.15 195.42Q492.88 196.06 494.18 196.06" fill="white" fill-opacity="0.7"/>
<path d="M506.85 197.64L504.69 197.64L504.69 184.44L506.85 184.44L506.85 186.96L506.90 186.96Q507.06 185.69 507.98 184.94Q508.89 184.20 510.42 184.20Q512.49 184.20 513.60 185.44Q514.72 186.67 514.72 188.95L514.72 190.08L512.56 190.08L512.56 188.95Q512.56 186.07 509.75 186.07Q508.34 186.07 507.59 186.89Q506.85 187.70 506.85 189.24" fill="white" fill-opacity="0.7"/>
<path d="M529.72 197.64L518.44 197.64L518.44 195.67L523.12 195.67L523.12 186.41L518.92 186.41L518.92 184.44L525.28 184.44L525.28 195.67L529.72 195.67L529.72 197.64M523.96 182.06Q523.17 182.06 522.71 181.66Q522.26 181.25 522.26 180.55Q522.26 179.83 522.71 179.41Q523.17 178.99 523.96 178.99Q524.75 178.99 525.21 179.41Q525.66 179.83 525.66 180.55Q525.66 181.25 525.21 181.66Q524.75 182.06 523.96 182.06" fill="white" fill-opacity="0.7"/>
<path d="M538 197.83Q535.62 197.83 534.22 196.44Q532.82 195.05 532.82 192.55L532.82 189.53Q532.82 187.01 534.21 185.63Q535.60 184.25 538 184.25Q540.40 184.25 541.79 185.63Q543.18 187.01 543.18 189.53L543.18 192.55Q543.18 195.05 541.78 196.44Q540.38 197.83 538 197.83M538 195.91Q539.42 195.91 540.22 195.12Q541.02 194.33 541.02 192.79L541.02 189.29Q541.02 187.75 540.22 186.96Q539.42 186.17 538 186.17Q536.61 186.17 535.79 186.96Q534.98 187.75 534.98 189.29L534.98 192.79Q534.98 194.33 535.79 195.12Q536.61 195.91 538 195.91" fill="white" fill-opacity="0.7"/>
<path d="M552.38 197.88Q550.10 197.88 548.73 196.52Q547.36 195.17 547.36 192.84L547.36 184.44L549.52 184.44L549.52 192.84Q549.52 194.28 550.29 195.13Q551.06 195.98 552.38 195.98Q553.72 195.98 554.50 195.13Q555.28 194.28 555.28 192.84L555.28 184.44L557.44 184.44L557.44 192.84Q557.44 195.17 556.05 196.52Q554.66 197.88 552.38 197.88" fill="white" fill-opacity="0.7"/>
<path d="M567.33 197.83L566.27 197.83Q564.06 197.83 562.85 196.84Q561.64 195.84 561.64 194.02L563.80 194.02Q563.80 194.93 564.45 195.44Q565.10 195.96 566.27 195.96L567.33 195.96Q568.53 195.96 569.19 195.43Q569.85 194.90 569.85 193.94Q569.85 192.24 568.29 192.02L564.64 191.50Q563.30 191.30 562.55 190.38Q561.81 189.46 561.81 187.94Q561.81 186.22 563 185.23Q564.18 184.25 566.27 184.25L567.33 184.25Q569.25 184.25 570.46 185.20Q571.67 186.14 571.77 187.68L569.58 187.68Q569.54 186.98 568.92 186.53Q568.31 186.07 567.33 186.07L566.27 186.07Q565.17 186.07 564.54 186.58Q563.92 187.08 563.92 187.94Q563.92 189.34 565.19 189.53L568.60 190.01Q571.96 190.49 571.96 193.94Q571.96 195.79 570.75 196.81Q569.54 197.83 567.33 197.83" fill="white" fill-opacity="0.7"/>
<path d="M600.76 197.64L596.92 197.64Q595.29 197.64 594.30 196.69Q593.32 195.74 593.32 194.16L593.32 186.41L589.53 186.41L589.53 184.44L593.32 184.44L593.32 180.72L595.48 180.72L595.48 184.44L600.88 184.44L600.88 186.41L595.48 186.41L595.48 194.16Q595.48 194.83 595.88 195.25Q596.27 195.67 596.92 195.67L600.76 195.67" fill="white" fill-opacity="0.7"/>
<path d="M609.33 201.96L607.07 201.96L609.02 196.82L604.10 184.44L606.42 184.44L609.54 192.60Q609.74 193.08 609.90 193.61Q610.07 194.14 610.14 194.52Q610.22 194.14 610.38 193.61Q610.55 193.08 610.72 192.60L613.62 184.44L615.90 184.44" fill="white" fill-opacity="0.7"/>
<path d="M621.57 201.96L619.41 201.96L619.41 184.44L621.57 184.44L621.57 186.96L621.59 186.96Q621.76 185.66 622.72 184.93Q623.68 184.20 625.17 184.20Q627.16 184.20 628.34 185.51Q629.51 186.82 629.51 189.10L629.51 192.96Q629.51 195.24 628.34 196.56Q627.16 197.88 625.17 197.88Q623.68 197.88 622.72 197.14Q621.76 196.39 621.59 195.12L621.52 195.12L621.57 198.12L621.57 201.96M624.45 196.01Q625.82 196.01 626.58 195.29Q627.35 194.57 627.35 192.96L627.35 189.12Q627.35 187.49 626.58 186.78Q625.82 186.07 624.45 186.07Q623.13 186.07 622.35 186.91Q621.57 187.75 621.57 189.24L621.57 192.84Q621.57 194.33 622.35 195.17Q623.13 196.01 624.45 196.01" fill="white" fill-opacity="0.7"/>
<path d="M638.80 197.88Q636.47 197.88 635.04 196.48Q633.62 195.07 633.62 192.60L633.62 189.48Q633.62 187.01 635.04 185.60Q636.47 184.20 638.80 184.20Q640.36 184.20 641.52 184.82Q642.69 185.45 643.34 186.58Q643.98 187.70 643.98 189.24L643.98 191.59L635.73 191.59L635.73 192.84Q635.73 194.30 636.57 195.16Q637.41 196.01 638.80 196.01Q640 196.01 640.78 195.54Q641.56 195.07 641.73 194.28L643.89 194.28Q643.67 195.94 642.28 196.91Q640.89 197.88 638.80 197.88M635.73 189.24L635.73 189.91L641.87 189.91L641.87 189.24Q641.87 187.68 641.07 186.83Q640.26 185.98 638.80 185.98Q637.34 185.98 636.53 186.83Q635.73 187.68 635.73 189.24" fill="white" fill-opacity="0.7"/>
<path d="M653.73 197.83L652.67 197.83Q650.46 197.83 649.25 196.84Q648.04 195.84 648.04 194.02L650.20 194.02Q650.20 194.93 650.85 195.44Q651.50 195.96 652.67 195.96L653.73 195.96Q654.93 195.96 655.59 195.43Q656.25 194.90 656.25 193.94Q656.25 192.24 654.69 192.02L651.04 191.50Q649.70 191.30 648.95 190.38Q648.21 189.46 648.21 187.94Q648.21 186.22 649.40 185.23Q650.58 184.25 652.67 184.25L653.73 184.25Q655.65 184.25 656.86 185.20Q658.07 186.14 658.17 187.68L655.98 187.68Q655.94 186.98 655.32 186.53Q654.71 186.07 653.73 186.07L652.67 186.07Q651.57 186.07 650.94 186.58Q650.32 187.08 650.32 187.94Q650.32 189.34 651.59 189.53L655 190.01Q658.36 190.49 658.36 193.94Q658.36 195.79 657.15 196.81Q655.94 197.83 653.73 197.83" fill="white" fill-opacity="0.7"/>
<path d="M682 197.83Q679.62 197.83 678.22 196.44Q676.82 195.05 676.82 192.55L676.82 189.53Q676.82 187.01 678.21 185.63Q679.60 184.25 682 184.25Q684.40 184.25 685.79 185.63Q687.18 187.01 687.18 189.53L687.18 192.55Q687.18 195.05 685.78 196.44Q684.38 197.83 682 197.83M682 195.91Q683.42 195.91 684.22 195.12Q685.02 194.33 685.02 192.79L685.02 189.29Q685.02 187.75 684.22 186.96Q683.42 186.17 682 186.17Q680.61 186.17 679.79 186.96Q678.98 187.75 678.98 189.29L678.98 192.79Q678.98 194.33 679.79 195.12Q680.61 195.91 682 195.91" fill="white" fill-opacity="0.7"/>
<path d="M696.52 197.64L694.36 197.64L694.36 188.21L690.52 188.21L690.52 186.24L694.36 186.24L694.36 183.48Q694.36 181.92 695.34 181.02Q696.33 180.12 698.06 180.12L701.92 180.12L701.92 182.09L698.06 182.09Q696.52 182.09 696.52 183.48L696.52 186.24L701.92 186.24L701.92 188.21L696.52 188.21" fill="white" fill-opacity="0.7"/>
<path d="M725.30 197.88Q722.75 197.88 721.24 196.54Q719.73 195.19 719.73 192.84L721.89 192.84Q721.89 194.30 722.82 195.13Q723.76 195.96 725.30 195.96Q726.78 195.96 727.67 195.10Q728.56 194.23 728.56 192.84Q728.56 191.78 728 191Q727.43 190.22 726.38 189.94L723.71 189.19Q722.06 188.71 721.11 187.48Q720.16 186.24 720.16 184.56Q720.16 183.17 720.78 182.11Q721.41 181.06 722.54 180.47Q723.66 179.88 725.13 179.88Q726.62 179.88 727.76 180.47Q728.90 181.06 729.54 182.10Q730.19 183.14 730.19 184.51L728.03 184.51Q728.03 183.31 727.22 182.56Q726.40 181.80 725.13 181.80Q723.86 181.80 723.06 182.56Q722.27 183.31 722.27 184.51Q722.27 185.47 722.79 186.16Q723.30 186.84 724.24 187.10L726.98 187.87Q728.73 188.35 729.70 189.68Q730.67 191.02 730.67 192.84Q730.67 195.14 729.21 196.51Q727.74 197.88 725.30 197.88" fill="white" fill-opacity="0.7"/>
<path d="M744.76 197.64L740.92 197.64Q739.29 197.64 738.30 196.69Q737.32 195.74 737.32 194.16L737.32 186.41L733.53 186.41L733.53 184.44L737.32 184.44L737.32 180.72L739.48 180.72L739.48 184.44L744.88 184.44L744.88 186.41L739.48 186.41L739.48 194.16Q739.48 194.83 739.88 195.25Q740.27 195.67 740.92 195.67L744.76 195.67" fill="white" fill-opacity="0.7"/>
<path d="M752.85 197.88Q750.81 197.88 749.61 196.74Q748.41 195.60 748.41 193.75Q748.41 192.53 748.96 191.62Q749.51 190.70 750.50 190.19Q751.48 189.67 752.75 189.67L756.83 189.67L756.83 188.64Q756.83 186.07 754.02 186.07Q752.78 186.07 752.01 186.53Q751.24 186.98 751.19 187.80L749.03 187.80Q749.15 186.24 750.48 185.22Q751.82 184.20 754.02 184.20Q756.42 184.20 757.71 185.35Q758.99 186.50 758.99 188.57L758.99 197.64L756.86 197.64L756.86 195.24L756.81 195.24Q756.62 196.46 755.58 197.17Q754.55 197.88 752.85 197.88M753.38 196.06Q754.96 196.06 755.90 195.29Q756.83 194.52 756.83 193.20L756.83 191.35L752.99 191.35Q751.94 191.35 751.28 191.99Q750.62 192.62 750.62 193.68Q750.62 194.78 751.35 195.42Q752.08 196.06 753.38 196.06" fill="white" fill-opacity="0.7"/>
<path d="M773.56 197.64L769.72 197.64Q768.09 197.64 767.10 196.69Q766.12 195.74 766.12 194.16L766.12 186.41L762.33 186.41L762.33 184.44L766.12 184.44L766.12 180.72L768.28 180.72L768.28 184.44L773.68 184.44L773.68 186.41L768.28 186.41L768.28 194.16Q768.28 194.83 768.68 195.25Q769.07 195.67 769.72 195.67L773.56 195.67" fill="white" fill-opacity="0.7"/>
<path d="M782.78 197.88Q780.50 197.88 779.13 196.52Q777.76 195.17 777.76 192.84L777.76 184.44L779.92 184.44L779.92 192.84Q779.92 194.28 780.69 195.13Q781.46 195.98 782.78 195.98Q784.12 195.98 784.90 195.13Q785.68 194.28 785.68 192.84L785.68 184.44L787.84 184.44L787.84 192.84Q787.84 195.17 786.45 196.52Q785.06 197.88 782.78 197.88" fill="white" fill-opacity="0.7"/>
<path d="M802.36 197.64L798.52 197.64Q796.89 197.64 795.90 196.69Q794.92 195.74 794.92 194.16L794.92 186.41L791.13 186.41L791.13 184.44L794.92 184.44L794.92 180.72L797.08 180.72L797.08 184.44L802.48 184.44L802.48 186.41L797.08 186.41L797.08 194.16Q797.08 194.83 797.48 195.25Q797.87 195.67 798.52 195.67L802.36 195.67" fill="white" fill-opacity="0.7"/>
<path d="M811.60 197.83Q809.22 197.83 807.82 196.44Q806.42 195.05 806.42 192.55L806.42 189.53Q806.42 187.01 807.81 185.63Q809.20 184.25 811.60 184.25Q814 184.25 815.39 185.63Q816.78 187.01 816.78 189.53L816.78 192.55Q816.78 195.05 815.38 196.44Q813.98 197.83 811.60 197.83M811.60 195.91Q813.02 195.91 813.82 195.12Q814.62 194.33 814.62 192.79L814.62 189.29Q814.62 187.75 813.82 186.96Q813.02 186.17 811.60 186.17Q810.21 186.17 809.39 186.96Q808.58 187.75 808.58 189.29L808.58 192.79Q808.58 194.33 809.39 195.12Q810.21 195.91 811.60 195.91" fill="white" fill-opacity="0.7"/>
<path d="M823.65 197.64L821.49 197.64L821.49 184.44L823.65 184.44L823.65 186.96L823.70 186.96Q823.86 185.69 824.78 184.94Q825.69 184.20 827.22 184.20Q829.29 184.20 830.40 185.44Q831.52 186.67 831.52 188.95L831.52 190.08L829.36 190.08L829.36 188.95Q829.36 186.07 826.55 186.07Q825.14 186.07 824.39 186.89Q823.65 187.70 823.65 189.24" fill="white" fill-opacity="0.7"/>
<path d="M839.73 201.96L837.47 201.96L839.42 196.82L834.50 184.44L836.82 184.44L839.94 192.60Q840.14 193.08 840.30 193.61Q840.47 194.14 840.54 194.52Q840.62 194.14 840.78 193.61Q840.95 193.08 841.12 192.60L844.02 184.44L846.30 184.44" fill="white" fill-opacity="0.7"/>
<path d="M873.88 197.64L864.52 197.64L864.52 195.67L868.10 195.67L868.10 182.09L864.52 182.09L864.52 180.12L873.88 180.12L873.88 182.09L870.30 182.09L870.30 195.67L873.88 195.67" fill="white" fill-opacity="0.7"/>
<path d="M880.77 197.64L878.61 197.64L878.61 184.44L880.77 184.44L880.77 186.96L880.79 186.96Q880.96 185.64 881.87 184.92Q882.78 184.20 884.30 184.20Q886.29 184.20 887.46 185.42Q888.64 186.65 888.64 188.76L888.64 197.64L886.48 197.64L886.48 189.14Q886.48 187.63 885.72 186.83Q884.97 186.02 883.67 186.02Q882.33 186.02 881.55 186.86Q880.77 187.70 880.77 189.24" fill="white" fill-opacity="0.7"/>
<path d="M898.53 197.83L897.47 197.83Q895.26 197.83 894.05 196.84Q892.84 195.84 892.84 194.02L895 194.02Q895 194.93 895.65 195.44Q896.30 195.96 897.47 195.96L898.53 195.96Q899.73 195.96 900.39 195.43Q901.05 194.90 901.05 193.94Q901.05 192.24 899.49 192.02L895.84 191.50Q894.50 191.30 893.75 190.38Q893.01 189.46 893.01 187.94Q893.01 186.22 894.20 185.23Q895.38 184.25 897.47 184.25L898.53 184.25Q900.45 184.25 901.66 185.20Q902.87 186.14 902.97 187.68L900.78 187.68Q900.74 186.98 900.12 186.53Q899.51 186.07 898.53 186.07L897.47 186.07Q896.37 186.07 895.74 186.58Q895.12 187.08 895.12 187.94Q895.12 189.34 896.39 189.53L899.80 190.01Q903.16 190.49 903.16 193.94Q903.16 195.79 901.95 196.81Q900.74 197.83 898.53 197.83" fill="white" fill-opacity="0.7"/>
<path d="M917.56 197.64L913.72 197.64Q912.09 197.64 911.10 196.69Q910.12 195.74 910.12 194.16L910.12 186.41L906.33 186.41L906.33 184.44L910.12 184.44L910.12 180.72L912.28 180.72L912.28 184.44L917.68 184.44L917.68 186.41L912.28 186.41L912.28 194.16Q912.28 194.83 912.68 195.25Q913.07 195.67 913.72 195.67L917.56 195.67" fill="white" fill-opacity="0.7"/>
<path d="M924.45 197.64L922.29 197.64L922.29 184.44L924.45 184.44L924.45 186.96L924.50 186.96Q924.66 185.69 925.58 184.94Q926.49 184.20 928.02 184.20Q930.09 184.20 931.20 185.44Q932.32 186.67 932.32 188.95L932.32 190.08L930.16 190.08L930.16 188.95Q930.16 186.07 927.35 186.07Q925.94 186.07 925.19 186.89Q924.45 187.70 924.45 189.24" fill="white" fill-opacity="0.7"/>
<path d="M941.18 197.88Q938.90 197.88 937.53 196.52Q936.16 195.17 936.16 192.84L936.16 184.44L938.32 184.44L938.32 192.84Q938.32 194.28 939.09 195.13Q939.86 195.98 941.18 195.98Q942.52 195.98 943.30 195.13Q944.08 194.28 944.08 192.84L944.08 184.44L946.24 184.44L946.24 192.84Q946.24 195.17 944.85 196.52Q943.46 197.88 941.18 197.88" fill="white" fill-opacity="0.7"/>
<path d="M951.86 197.64L949.84 197.64L949.84 184.44L951.71 184.44L951.71 186.19L951.76 186.19Q951.88 185.30 952.47 184.75Q953.06 184.20 953.97 184.20Q954.83 184.20 955.43 184.70Q956.03 185.21 956.30 186.07L956.32 186.07Q956.49 185.21 957.08 184.70Q957.66 184.20 958.58 184.20Q959.85 184.20 960.60 185.15Q961.36 186.10 961.36 187.61L961.36 197.64L959.34 197.64L959.34 187.58Q959.34 186.79 958.96 186.32Q958.58 185.86 957.90 185.86Q957.26 185.86 956.87 186.31Q956.49 186.77 956.49 187.56L956.49 197.64L954.71 197.64L954.71 187.58Q954.71 186.79 954.33 186.32Q953.94 185.86 953.30 185.86Q952.62 185.86 952.24 186.31Q951.86 186.77 951.86 187.56" fill="white" fill-opacity="0.7"/>
<path d="M970 197.88Q967.67 197.88 966.24 196.48Q964.82 195.07 964.82 192.60L964.82 189.48Q964.82 187.01 966.24 185.60Q967.67 184.20 970 184.20Q971.56 184.20 972.72 184.82Q973.89 185.45 974.54 186.58Q975.18 187.70 975.18 189.24L975.18 191.59L966.93 191.59L966.93 192.84Q966.93 194.30 967.77 195.16Q968.61 196.01 970 196.01Q971.20 196.01 971.98 195.54Q972.76 195.07 972.93 194.28L975.09 194.28Q974.87 195.94 973.48 196.91Q972.09 197.88 970 197.88M966.93 189.24L966.93 189.91L973.07 189.91L973.07 189.24Q973.07 187.68 972.27 186.83Q971.46 185.98 970 185.98Q968.54 185.98 967.73 186.83Q966.93 187.68 966.93 189.24" fill="white" fill-opacity="0.7"/>
<path d="M981.57 197.64L979.41 197.64L979.41 184.44L981.57 184.44L981.57 186.96L981.59 186.96Q981.76 185.64 982.67 184.92Q983.58 184.20 985.10 184.20Q987.09 184.20 988.26 185.42Q989.44 186.65 989.44 188.76L989.44 197.64L987.28 197.64L987.28 189.14Q987.28 187.63 986.52 186.83Q985.77 186.02 984.47 186.02Q983.13 186.02 982.35 186.86Q981.57 187.70 981.57 189.24" fill="white" fill-opacity="0.7"/>
<path d="M1003.96 197.64L1000.12 197.64Q998.49 197.64 997.50 196.69Q996.52 195.74 996.52 194.16L996.52 186.41L992.73 186.41L992.73 184.44L996.52 184.44L996.52 180.72L998.68 180.72L998.68 184.44L1004.08 184.44L1004.08 186.41L998.68 186.41L998.68 194.16Q998.68 194.83 999.08 195.25Q999.47 195.67 1000.12 195.67L1003.96 195.67" fill="white" fill-opacity="0.7"/>
<path d="M1013.73 197.83L1012.67 197.83Q1010.46 197.83 1009.25 196.84Q1008.04 195.84 1008.04 194.02L1010.20 194.02Q1010.20 194.93 1010.85 195.44Q1011.50 195.96 1012.67 195.96L1013.73 195.96Q1014.93 195.96 1015.59 195.43Q1016.25 194.90 1016.25 193.94Q1016.25 192.24 1014.69 192.02L1011.04 191.50Q1009.70 191.30 1008.95 190.38Q1008.21 189.46 1008.21 187.94Q1008.21 186.22 1009.40 185.23Q1010.58 184.25 1012.67 184.25L1013.73 184.25Q1015.65 184.25 1016.86 185.20Q1018.07 186.14 1018.17 187.68L1015.98 187.68Q1015.94 186.98 1015.32 186.53Q1014.71 186.07 1013.73 186.07L1012.67 186.07Q1011.57 186.07 1010.94 186.58Q1010.32 187.08 1010.32 187.94Q1010.32 189.34 1011.59 189.53L1015 190.01Q1018.36 190.49 1018.36 193.94Q1018.36 195.79 1017.15 196.81Q1015.94 197.83 1013.73 197.83" fill="white" fill-opacity="0.7"/>
<path d="M1048 197.64L1043.92 197.64Q1042.17 197.64 1041.12 196.62Q1040.08 195.60 1040.08 193.92L1040.08 182.09L1035.52 182.09L1035.52 180.12L1042.24 180.12L1042.24 193.92Q1042.24 194.74 1042.70 195.20Q1043.15 195.67 1043.92 195.67L1048 195.67" fill="white" fill-opacity="0.7"/>
<path d="M1055.25 197.88Q1053.21 197.88 1052.01 196.74Q1050.81 195.60 1050.81 193.75Q1050.81 192.53 1051.36 191.62Q1051.91 190.70 1052.90 190.19Q1053.88 189.67 1055.15 189.67L1059.23 189.67L1059.23 188.64Q1059.23 186.07 1056.42 186.07Q1055.18 186.07 1054.41 186.53Q1053.64 186.98 1053.59 187.80L1051.43 187.80Q1051.55 186.24 1052.88 185.22Q1054.22 184.20 1056.42 184.20Q1058.82 184.20 1060.11 185.35Q1061.39 186.50 1061.39 188.57L1061.39 197.64L1059.26 197.64L1059.26 195.24L1059.21 195.24Q1059.02 196.46 1057.98 197.17Q1056.95 197.88 1055.25 197.88M1055.78 196.06Q1057.36 196.06 1058.30 195.29Q1059.23 194.52 1059.23 193.20L1059.23 191.35L1055.39 191.35Q1054.34 191.35 1053.68 191.99Q1053.02 192.62 1053.02 193.68Q1053.02 194.78 1053.75 195.42Q1054.48 196.06 1055.78 196.06" fill="white" fill-opacity="0.7"/>
<path d="M1076.92 197.64L1065.64 197.64L1065.64 195.67L1070.32 195.67L1070.32 186.41L1066.12 186.41L1066.12 184.44L1072.48 184.44L1072.48 195.67L1076.92 195.67L1076.92 197.64M1071.16 182.06Q1070.37 182.06 1069.91 181.66Q1069.46 181.25 1069.46 180.55Q1069.46 179.83 1069.91 179.41Q1070.37 178.99 1071.16 178.99Q1071.95 178.99 1072.41 179.41Q1072.86 179.83 1072.86 180.55Q1072.86 181.25 1072.41 181.66Q1071.95 182.06 1071.16 182.06" fill="white" fill-opacity="0.7"/>
<path d="M1084.43 197.88Q1082.46 197.88 1081.28 196.56Q1080.09 195.24 1080.09 192.98L1080.09 189.12Q1080.09 186.84 1081.26 185.52Q1082.44 184.20 1084.43 184.20Q1085.92 184.20 1086.89 184.94Q1087.86 185.69 1088.06 186.96L1088.08 186.96L1088.03 183.96L1088.03 180.12L1090.19 180.12L1090.19 197.64L1088.03 197.64L1088.03 195.12L1088.01 195.12Q1087.84 196.42 1086.88 197.15Q1085.92 197.88 1084.43 197.88M1085.15 196.01Q1086.50 196.01 1087.26 195.17Q1088.03 194.33 1088.03 192.84L1088.03 189.24Q1088.03 187.75 1087.26 186.91Q1086.50 186.07 1085.15 186.07Q1083.78 186.07 1083.02 186.78Q1082.25 187.49 1082.25 189.12L1082.25 192.96Q1082.25 194.57 1083.02 195.29Q1083.78 196.01 1085.15 196.01" fill="white" fill-opacity="0.7"/>
<path d="M77.97 229.88Q76.48 229.88 75.52 229.15Q74.56 228.42 74.39 227.12L74.37 227.12L74.37 229.64L72.21 229.64L72.21 212.12L74.37 212.12L74.37 215.96L74.32 218.96L74.34 218.96Q74.54 217.69 75.51 216.94Q76.48 216.20 77.97 216.20Q79.96 216.20 81.14 217.52Q82.31 218.84 82.31 221.12L82.31 224.98Q82.31 227.24 81.14 228.56Q79.96 229.88 77.97 229.88M77.25 228.01Q78.62 228.01 79.38 227.29Q80.15 226.57 80.15 224.96L80.15 221.12Q80.15 219.49 79.38 218.78Q78.62 218.07 77.25 218.07Q75.93 218.07 75.15 218.91Q74.37 219.75 74.37 221.24L74.37 224.84Q74.37 226.33 75.15 227.17Q75.93 228.01 77.25 228.01" fill="white" fill-opacity="0.7"/>
<path d="M91.60 229.88Q89.27 229.88 87.84 228.48Q86.42 227.07 86.42 224.60L86.42 221.48Q86.42 219.01 87.84 217.60Q89.27 216.20 91.60 216.20Q93.16 216.20 94.32 216.82Q95.49 217.45 96.14 218.58Q96.78 219.70 96.78 221.24L96.78 223.59L88.53 223.59L88.53 224.84Q88.53 226.30 89.37 227.16Q90.21 228.01 91.60 228.01Q92.80 228.01 93.58 227.54Q94.36 227.07 94.53 226.28L96.69 226.28Q96.47 227.94 95.08 228.91Q93.69 229.88 91.60 229.88M88.53 221.24L88.53 221.91L94.67 221.91L94.67 221.24Q94.67 219.68 93.87 218.83Q93.06 217.98 91.60 217.98Q90.14 217.98 89.33 218.83Q88.53 219.68 88.53 221.24" fill="white" fill-opacity="0.7"/>
<path d="M106.12 229.64L103.96 229.64L103.96 220.21L100.12 220.21L100.12 218.24L103.96 218.24L103.96 215.48Q103.96 213.92 104.94 213.02Q105.93 212.12 107.66 212.12L111.52 212.12L111.52 214.09L107.66 214.09Q106.12 214.09 106.12 215.48L106.12 218.24L111.52 218.24L111.52 220.21L106.12 220.21" fill="white" fill-opacity="0.7"/>
<path d="M120.40 229.83Q118.02 229.83 116.62 228.44Q115.22 227.05 115.22 224.55L115.22 221.53Q115.22 219.01 116.61 217.63QNaN 216.25 120.40 216.25Q122.80 216.25 124.19 217.63Q125.58 219.01 125.58 221.53L125.58 224.55Q125.58 227.05 124.18 228.44Q122.78 229.83 120.40 229.83M120.40 227.91Q121.82 227.91 122.62 227.12Q123.42 226.33 123.42 224.79L123.42 221.29Q123.42 219.75 122.62 218.96Q121.82 218.17 120.40 218.17Q119.01 218.17 118.19 218.96Q117.38 219.75 117.38 221.29L117.38 224.79Q117.38 226.33 118.19 227.12Q119.01 227.91 120.40 227.91" fill="white" fill-opacity="0.7"/>
<path d="M132.45 229.64L130.29 229.64L130.29 216.44L132.45 216.44L132.45 218.96L132.50 218.96Q132.66 217.69 133.58 216.94Q134.49 216.20 136.02 216.20Q138.09 216.20 139.20 217.44Q140.32 218.67 140.32 220.95L140.32 222.08L138.16 222.08L138.16 220.95Q138.16 218.07 135.35 218.07Q133.94 218.07 133.19 218.89Q132.45 219.70 132.45 221.24" fill="white" fill-opacity="0.7"/>
<path d="M149.20 229.88Q146.87 229.88 145.44 228.48Q144.02 227.07 144.02 224.60L144.02 221.48Q144.02 219.01 145.44 217.60Q146.87 216.20 149.20 216.20Q150.76 216.20 151.92 216.82Q153.09 217.45 153.74 218.58Q154.38 219.70 154.38 221.24L154.38 223.59L146.13 223.59L146.13 224.84Q146.13 226.30 146.97 227.16Q147.81 228.01 149.20 228.01Q150.40 228.01 151.18 227.54Q151.96 227.07 152.13 226.28L154.29 226.28Q154.07 227.94 152.68 228.91Q151.29 229.88 149.20 229.88M146.13 221.24L146.13 221.91L152.27 221.91L152.27 221.24Q152.27 219.68 151.47 218.83Q150.66 217.98 149.20 217.98Q147.74 217.98 146.93 218.83Q146.13 219.68 146.13 221.24" fill="white" fill-opacity="0.7"/>
<path d="M175.17 229.64L173.01 229.64L173.01 212.12L178.65 212.12Q181.10 212.12 182.55 213.52QNaN 214.93 NaN 217.28QNaN 219.63 182.55 221.04Q181.10 222.44 178.65 222.44L175.17 222.44L175.17 229.64M175.17 214.06L175.17 220.50L178.65 220.50Q180.06 220.50 180.92 219.62Q181.77 218.74 181.77 217.28Q181.77 215.79 180.92 214.93Q180.06 214.06 178.65 214.06" fill="white" fill-opacity="0.7"/>
<path d="M191.25 229.88Q189.21 229.88 188.01 228.74Q186.81 227.60 186.81 225.75Q186.81 224.53 187.36 223.62Q187.91 222.70 188.90 222.19Q189.88 221.67 191.15 221.67L195.23 221.67L195.23 220.64Q195.23 218.07 192.42 218.07Q191.18 218.07 190.41 218.53Q189.64 218.98 189.59 219.80L187.43 219.80Q187.55 218.24 188.88 217.22Q190.22 216.20 192.42 216.20Q194.82 216.20 196.11 217.35Q197.39 218.50 197.39 220.57L197.39 229.64L195.26 229.64L195.26 227.24L195.21 227.24Q195.02 228.46 193.98 229.17Q192.95 229.88 191.25 229.88M191.78 228.06Q193.36 228.06 194.30 227.29Q195.23 226.52 195.23 225.20L195.23 223.35L191.39 223.35Q190.34 223.35 189.68 223.99Q189.02 224.62 189.02 225.68Q189.02 226.78 189.75 227.42Q190.48 228.06 191.78 228.06" fill="white" fill-opacity="0.7"/>
<path d="M204.45 229.64L202.29 229.64L202.29 216.44L204.45 216.44L204.45 218.96L204.50 218.96Q204.66 217.69 205.58 216.94Q206.49 216.20 208.02 216.20Q210.09 216.20 211.20 217.44Q212.32 218.67 212.32 220.95L212.32 222.08L210.16 222.08L210.16 220.95Q210.16 218.07 207.35 218.07Q205.94 218.07 205.19 218.89Q204.45 219.70 204.45 221.24" fill="white" fill-opacity="0.7"/>
<path d="M227.20 229.64L223.12 229.64Q221.37 229.64 220.32 228.62Q219.28 227.60 219.28 225.92L219.28 214.09L214.72 214.09L214.72 212.12L221.44 212.12L221.44 225.92Q221.44 226.74 221.90 227.20Q222.35 227.67 223.12 227.67L227.20 227.67" fill="white" fill-opacity="0.7"/>
<path d="M241.72 229.64L230.44 229.64L230.44 227.67L235.12 227.67L235.12 218.41L230.92 218.41L230.92 216.44L237.28 216.44L237.28 227.67L241.72 227.67L241.72 229.64M235.96 214.06Q235.17 214.06 234.71 213.66Q234.26 213.25 234.26 212.55Q234.26 211.83 234.71 211.41Q235.17 210.99 235.96 210.99Q236.75 210.99 237.21 211.41Q237.66 211.83 237.66 212.55Q237.66 213.25 237.21 213.66Q236.75 214.06 235.96 214.06" fill="white" fill-opacity="0.7"/>
<path d="M248.85 229.88Q246.81 229.88 245.61 228.74Q244.41 227.60 244.41 225.75Q244.41 224.53 244.96 223.62Q245.51 222.70 246.50 222.19Q247.48 221.67 248.75 221.67L252.83 221.67L252.83 220.64Q252.83 218.07 250.02 218.07Q248.78 218.07 248.01 218.53Q247.24 218.98 247.19 219.80L245.03 219.80Q245.15 218.24 246.48 217.22Q247.82 216.20 250.02 216.20Q252.42 216.20 253.71 217.35Q254.99 218.50 254.99 220.57L254.99 229.64L252.86 229.64L252.86 227.24L252.81 227.24Q252.62 228.46 251.58 229.17Q250.55 229.88 248.85 229.88M249.38 228.06Q250.96 228.06 251.90 227.29Q252.83 226.52 252.83 225.20L252.83 223.35L248.99 223.35Q247.94 223.35 247.28 223.99Q246.62 224.62 246.62 225.68Q246.62 226.78 247.35 227.42Q248.08 228.06 249.38 228.06" fill="white" fill-opacity="0.7"/>
<path d="M260.66 229.64L258.64 229.64L258.64 216.44L260.51 216.44L260.51 218.19L260.56 218.19Q260.68 217.30 261.27 216.75Q261.86 216.20 262.77 216.20Q263.63 216.20 264.23 216.70Q264.83 217.21 265.10 218.07L265.12 218.07Q265.29 217.21 265.88 216.70Q266.46 216.20 267.38 216.20Q268.65 216.20 269.40 217.15Q270.16 218.10 270.16 219.61L270.16 229.64L268.14 229.64L268.14 219.58Q268.14 218.79 267.76 218.32Q267.38 217.86 266.70 217.86Q266.06 217.86 265.67 218.31Q265.29 218.77 265.29 219.56L265.29 229.64L263.51 229.64L263.51 219.58Q263.51 218.79 263.13 218.32Q262.74 217.86 262.10 217.86Q261.42 217.86 261.04 218.31Q260.66 218.77 260.66 219.56" fill="white" fill-opacity="0.7"/>
<path d="M278.80 229.88Q276.47 229.88 275.04 228.48Q273.62 227.07 273.62 224.60L273.62 221.48Q273.62 219.01 275.04 217.60Q276.47 216.20 278.80 216.20Q280.36 216.20 281.52 216.82Q282.69 217.45 283.34 218.58Q283.98 219.70 283.98 221.24L283.98 223.59L275.73 223.59L275.73 224.84Q275.73 226.30 276.57 227.16Q277.41 228.01 278.80 228.01Q280 228.01 280.78 227.54Q281.56 227.07 281.73 226.28L283.89 226.28Q283.67 227.94 282.28 228.91Q280.89 229.88 278.80 229.88M275.73 221.24L275.73 221.91L281.87 221.91L281.87 221.24Q281.87 219.68 281.07 218.83Q280.26 217.98 278.80 217.98Q277.34 217.98 276.53 218.83Q275.73 219.68 275.73 221.24" fill="white" fill-opacity="0.7"/>
<path d="M290.37 229.64L288.21 229.64L288.21 216.44L290.37 216.44L290.37 218.96L290.39 218.96Q290.56 217.64 291.47 216.92Q292.38 216.20 293.90 216.20Q295.89 216.20 297.06 217.42Q298.24 218.65 298.24 220.76L298.24 229.64L296.08 229.64L296.08 221.14Q296.08 219.63 295.32 218.83Q294.57 218.02 293.27 218.02Q291.93 218.02 291.15 218.86Q290.37 219.70 290.37 221.24" fill="white" fill-opacity="0.7"/>
<path d="M312.76 229.64L308.92 229.64Q307.29 229.64 306.30 228.69Q305.32 227.74 305.32 226.16L305.32 218.41L301.53 218.41L301.53 216.44L305.32 216.44L305.32 212.72L307.48 212.72L307.48 216.44L312.88 216.44L312.88 218.41L307.48 218.41L307.48 226.16Q307.48 226.83 307.88 227.25Q308.27 227.67 308.92 227.67L312.76 227.67" fill="white" fill-opacity="0.7"/>
<path d="M79.95 136.06L70.45 136.06L70.45 65.98L93.20 65.98Q99.92 65.98 104.82 68.57Q109.71 71.16 112.40 75.82Q115.09 80.48 115.09 86.91Q115.09 93.24 112.40 97.90Q109.71 102.56 104.77 105.15Q99.82 107.74 93.20 107.74L79.95 107.74L79.95 136.06M79.95 74.43L79.95 99.29L93.20 99.29Q98.77 99.29 102.03 95.88Q105.30 92.48 105.30 86.91Q105.30 81.24 102.03 77.84Q98.77 74.43 93.20 74.43L79.95 74.43M133.71 136.06L124.02 136.06L142.16 65.98L154.74 65.98L172.78 136.06L163.09 136.06L158.67 117.82L138.13 117.82L133.71 136.06M145.14 88.92L140.05 109.95L156.75 109.95L151.76 89.02Q150.32 83.26 149.46 79.23Q148.59 75.20 148.40 73.76Q148.21 75.20 147.34 79.23Q146.48 83.26 145.14 88.92M195.15 136.06L185.74 136.06L185.74 65.98L207.44 65.98Q213.87 65.98 218.67 68.52Q223.47 71.07 226.16 75.63Q228.85 80.19 228.85 86.33Q228.85 93.44 225.25 98.52Q221.65 103.61 215.70 105.72L229.81 136.06L219.34 136.06L206 106.78L195.15 106.78L195.15 136.06M195.15 74.43L195.15 98.33L207.44 98.33Q212.82 98.33 215.94 95.07Q219.06 91.80 219.06 86.43Q219.06 80.96 215.89 77.69Q212.72 74.43 207.44 74.43L195.15 74.43M287.79 136.06L247.09 136.06L247.09 65.98L256.59 65.98L256.59 127.42L287.79 127.42L287.79 136.06M340.30 136.06L302.10 136.06L302.10 127.42L316.40 127.42L316.40 74.62L302.10 74.62L302.10 65.98L340.30 65.98L340.30 74.62L326 74.62L326 127.42L340.30 127.42L340.30 136.06M364.11 136.06L354.42 136.06L372.56 65.98L385.14 65.98L403.18 136.06L393.49 136.06L389.07 117.82L368.53 117.82L364.11 136.06M375.54 88.92L370.45 109.95L387.15 109.95L382.16 89.02Q380.72 83.26 379.86 79.23Q378.99 75.20 378.80 73.76Q378.61 75.20 377.74 79.23Q376.88 83.26 375.54 88.92M423.15 136.06L414.13 136.06L414.13 65.98L427.57 65.98L436.21 96.22L445.23 65.98L458.77 65.98L458.77 136.06L449.65 136.06L449.65 103.90Q449.65 98.81 449.84 92.62Q450.03 86.43 450.37 80.24Q450.70 74.04 451.09 69.05L440.14 104.96L432.08 104.96L421.52 69.92Q422.38 76.92 422.77 85.52Q423.15 94.11 423.15 103.90L423.15 136.06M515.31 136.06L474.51 136.06L474.51 65.98L515.31 65.98L515.31 74.52L483.92 74.52L483.92 95.36L511.95 95.36L511.95 103.61L483.92 103.61L483.92 127.52L515.31 127.52L515.31 136.06M539.98 136.06L531.06 136.06L531.06 65.98L543.34 65.98L564.27 125.12Q563.98 122.62 563.74 118.92Q563.50 115.23 563.36 111.24Q563.22 107.26 563.22 103.71L563.22 65.98L572.24 65.98L572.24 136.06L559.86 136.06L539.12 76.92Q539.31 79.42 539.50 83.02Q539.70 86.62 539.84 90.56Q539.98 94.49 539.98 97.95L539.98 136.06MNaN 136.06L604.50 136.06L604.50 74.62L585.49 74.62L585.49 65.98L632.91 65.98L632.91 74.62LNaN 74.62LNaN 136.06M724.78 137.02Q714.42 137.02 708.27 131.60Q702.13 126.17 702.13 116.67L711.63 116.67Q711.63 122.24 715.18 125.40Q718.74 128.57 724.78 128.57Q730.54 128.57 733.95 125.36Q737.36 122.14 737.36 116.76Q737.36 112.73 735.15 109.71Q732.94 106.68 728.91 105.63L718.54 102.84Q711.73 100.92 707.74 95.88Q703.76 90.84 703.76 83.93Q703.76 78.27 706.30 74Q708.85 69.72 713.46 67.37Q718.06 65.02 724.11 65.02Q730.26 65.02 734.91 67.37Q739.57 69.72 742.16 73.95Q744.75 78.17 744.75 83.74L735.34 83.74Q735.34 79.13 732.22 76.25Q729.10 73.37 724.11 73.37Q719.12 73.37 716.10 76.25Q713.07 79.13 713.07 83.74Q713.07 87.48 715.09 90.03Q717.10 92.57 720.75 93.63L731.41 96.51Q738.61 98.43 742.64 103.85Q746.67 109.28 746.67 116.76Q746.67 122.91 743.98 127.47Q741.30 132.03 736.35 134.52Q731.41 137.02 724.78 137.02M786.80 136.06L777.30 136.06L777.30 74.62L758.29 74.62L758.29 65.98L805.71 65.98L805.71 74.62L786.80 74.62L786.80 136.06M824.91 136.06L815.22 136.06L833.36 65.98L845.94 65.98L863.98 136.06L854.29 136.06L849.87 117.82L829.33 117.82L824.91 136.06M836.34 88.92L831.25 109.95L847.95 109.95L842.96 89.02Q841.52 83.26 840.66 79.23Q839.79 75.20 839.60 73.76Q839.41 75.20 838.54 79.23Q837.68 83.26 836.34 88.92MNaN 136.06L892.50 136.06L892.50 74.62L873.49 74.62L873.49 65.98L920.91 65.98L920.91 74.62LNaN 74.62LNaN 136.06M954.80 137.02Q944.91 137.02 939.58 131.55Q934.26 126.08 934.26 116.67L934.26 65.98L943.76 65.98L943.76 116.67Q943.76 122.24 946.50 125.40Q949.23 128.57 954.80 128.57Q960.27 128.57 963.10 125.40Q965.94 122.24 965.94 116.67L965.94 65.98L975.44 65.98L975.44 116.67Q975.44 126.17 970.11 131.60Q964.78 137.02 954.80 137.02M1017.20 136.06L1007.70 136.06L1007.70 74.62L988.69 74.62L988.69 65.98L1036.11 65.98L1036.11 74.62L1017.20 74.62L1017.20 136.06MNaN 137.02Q1060.40 137.02 1054.83 131.45Q1049.26 125.88 1049.26 115.71L1049.26 86.24Q1049.26 76.16 1054.83 70.59Q1060.40 65.02 NaN 65.02Q1079.60 65.02 1085.17 70.54Q1090.74 76.06 1090.74 86.24L1090.74 115.71Q1090.74 125.88 1085.17 131.45Q1079.60 137.02 NaN 137.02MNaN 128.57Q1075.38 128.57 1078.30 125.50Q1081.23 122.43 1081.23 116.67L1081.23 85.28Q1081.23 79.61 1078.35 76.54Q1075.47 73.47 NaN 73.47Q1064.53 73.47 1061.65 76.54Q1058.77 79.61 1058.77 85.28L1058.77 116.67Q1058.77 122.43 1061.70 125.50Q1064.62 128.57 NaN 128.57M1116.75 136.06L1107.34 136.06L1107.34 65.98L1129.04 65.98Q1135.47 65.98 1140.27 68.52Q1145.07 71.07 1147.76 75.63Q1150.45 80.19 1150.45 86.33Q1150.45 93.44 1146.85 98.52Q1143.25 103.61 1137.30 105.72L1151.41 136.06L1140.94 136.06L1127.60 106.78L1116.75 106.78L1116.75 136.06M1116.75 74.43L1116.75 98.33L1129.04 98.33Q1134.42 98.33 1137.54 95.07Q1140.66 91.80 1140.66 86.43Q1140.66 80.96 1137.49 77.69Q1134.32 74.43 1129.04 74.43L1116.75 74.43M1190 136.06L1180.50 136.06L1180.50 110.04L1159.47 65.98L1169.55 65.98L1182.51 93.63Q1183.66 96.12 1184.38 98.14Q1185.10 100.16 1185.30 101.02Q1185.58 100.16 1186.30 98.14Q1187.02 96.12 1188.27 93.63L1201.14 65.98L1210.93 65.98L1190 110.04L1190 136.06M1261.90 136.06L1223.70 136.06L1223.70 127.42L1238 127.42L1238 74.62L1223.70 74.62L1223.70 65.98L1261.90 65.98L1261.90 74.62L1247.60 74.62L1247.60 127.42L1261.90 127.42L1261.90 136.06M1288.78 136.06L1279.86 136.06L1279.86 65.98L1292.14 65.98L1313.07 125.12Q1312.78 122.62 1312.54 118.92Q1312.30 115.23 1312.16 111.24Q1312.02 107.26 1312.02 103.71L1312.02 65.98L1321.04 65.98L1321.04 136.06L1308.66 136.06L1287.92 76.92Q1288.11 79.42 1288.30 83.02Q1288.50 86.62 1288.64 90.56Q1288.78 94.49 1288.78 97.95L1288.78 136.06M1358.38 137.02Q1348.02 137.02 1341.87 131.60Q1335.73 126.17 1335.73 116.67L1345.23 116.67Q1345.23 122.24 1348.78 125.40Q1352.34 128.57 1358.38 128.57Q1364.14 128.57 1367.55 125.36Q1370.96 122.14 1370.96 116.76Q1370.96 112.73 1368.75 109.71Q1366.54 106.68 1362.51 105.63L1352.14 102.84Q1345.33 100.92 1341.34 95.88Q1337.36 90.84 1337.36 83.93Q1337.36 78.27 1339.90 74Q1342.45 69.72 1347.06 67.37Q1351.66 65.02 1357.71 65.02Q1363.86 65.02 1368.51 67.37Q1373.17 69.72 1375.76 73.95Q1378.35 78.17 1378.35 83.74L1368.94 83.74Q1368.94 79.13 1365.82 76.25Q1362.70 73.37 1357.71 73.37Q1352.72 73.37 1349.70 76.25Q1346.67 79.13 1346.67 83.74Q1346.67 87.48 1348.69 90.03Q1350.70 92.57 1354.35 93.63L1365.01 96.51Q1372.21 98.43 1376.24 103.85Q1380.27 109.28 1380.27 116.76Q1380.27 122.91 1377.58 127.47Q1374.90 132.03 1369.95 134.52Q1365.01 137.02 1358.38 137.02M1420.40 136.06L1410.90 136.06L1410.90 74.62L1391.89 74.62L1391.89 65.98L1439.31 65.98L1439.31 74.62L1420.40 74.62L1420.40 136.06M1462.35 136.06L1452.94 136.06L1452.94 65.98L1474.64 65.98Q1481.07 65.98 1485.87 68.52Q1490.67 71.07 1493.36 75.63Q1496.05 80.19 1496.05 86.33Q1496.05 93.44 1492.45 98.52Q1488.85 103.61 1482.90 105.72L1497.01 136.06L1486.54 136.06L1473.20 106.78L1462.35 106.78L1462.35 136.06M1462.35 74.43L1462.35 98.33L1474.64 98.33Q1480.02 98.33 1483.14 95.07Q1486.26 91.80 1486.26 86.43Q1486.26 80.96 1483.09 77.69Q1479.92 74.43 1474.64 74.43L1462.35 74.43M1530.80 137.02Q1520.91 137.02 1515.58 131.55Q1510.26 126.08 1510.26 116.67L1510.26 65.98L1519.76 65.98L1519.76 116.67Q1519.76 122.24 1522.50 125.40Q1525.23 128.57 1530.80 128.57Q1536.27 128.57 1539.10 125.40Q1541.94 122.24 1541.94 116.67L1541.94 65.98L1551.44 65.98L1551.44 116.67Q1551.44 126.17 1546.11 131.60Q1540.78 137.02 1530.80 137.02M1575.15 136.06L1566.13 136.06L1566.13 65.98L1579.57 65.98L1588.21 96.22L1597.23 65.98L1610.77 65.98L1610.77 136.06L1601.65 136.06L1601.65 103.90Q1601.65 98.81 1601.84 92.62Q1602.03 86.43 1602.37 80.24Q1602.70 74.04 1603.09 69.05L1592.14 104.96L1584.08 104.96L1573.52 69.92Q1574.38 76.92 1574.77 85.52Q1575.15 94.11 1575.15 103.90L1575.15 136.06M1667.31 136.06L1626.51 136.06L1626.51 65.98L1667.31 65.98L1667.31 74.52L1635.92 74.52L1635.92 95.36L1663.95 95.36L1663.95 103.61L1635.92 103.61L1635.92 127.52L1667.31 127.52L1667.31 136.06M1691.98 136.06L1683.06 136.06L1683.06 65.98L1695.34 65.98L1716.27 125.12Q1715.98 122.62 1715.74 118.92Q1715.50 115.23 1715.36 111.24Q1715.22 107.26 1715.22 103.71L1715.22 65.98L1724.24 65.98L1724.24 136.06L1711.86 136.06L1691.12 76.92Q1691.31 79.42 1691.50 83.02Q1691.70 86.62 1691.84 90.56Q1691.98 94.49 1691.98 97.95L1691.98 136.06M1766 136.06L1756.50 136.06L1756.50 74.62L1737.49 74.62L1737.49 65.98L1784.91 65.98L1784.91 74.62L1766 74.62L1766 136.06M1819.18 137.02Q1808.82 137.02 1802.67 131.60Q1796.53 126.17 1796.53 116.67L1806.03 116.67Q1806.03 122.24 1809.58 125.40Q1813.14 128.57 1819.18 128.57Q1824.94 128.57 1828.35 125.36Q1831.76 122.14 1831.76 116.76Q1831.76 112.73 1829.55 109.71Q1827.34 106.68 1823.31 105.63L1812.94 102.84Q1806.13 100.92 1802.14 95.88Q1798.16 90.84 1798.16 83.93Q1798.16 78.27 1800.70 74Q1803.25 69.72 1807.86 67.37Q1812.46 65.02 1818.51 65.02Q1824.66 65.02 1829.31 67.37Q1833.97 69.72 1836.56 73.95Q1839.15 78.17 1839.15 83.74L1829.74 83.74Q1829.74 79.13 1826.62 76.25Q1823.50 73.37 1818.51 73.37Q1813.52 73.37 1810.50 76.25Q1807.47 79.13 1807.47 83.74Q1807.47 87.48 1809.49 90.03Q1811.50 92.57 1815.15 93.63L1825.81 96.51Q1833.01 98.43 1837.04 103.85Q1841.07 109.28 1841.07 116.76Q1841.07 122.91 1838.38 127.47Q1835.70 132.03 1830.75 134.52Q1825.81 137.02 1819.18 137.02" fill="url(#paint2_linear_0_1)"/>
<g id="Group 1">
<rect id="Rectangle 1" x="26" y="168" width="12" height="184" rx="5" fill="url(#paint3_linear_0_1)" fill-opacity="0.9"/>
</g>
<g id="Group 1_2">
<rect id="Rectangle 2" x="26" y="38" width="12" height="119" rx="5" fill="url(#paint4_linear_0_1)" fill-opacity="0.9"/>
</g>
<ellipse id="Ellipse 1" cx="148.5" cy="573" rx="215.5" ry="214" fill="url(#paint5_linear_0_1)" fill-opacity="0.4"/>
<rect id="Rectangle 3" x="1229" y="48" width="300" height="300" rx="25" fill="#FFFBFB" fill-opacity="0.9"/>
<g id="placeholder-logo"><g transform="translate(1229,48) translate(0.0,60.0) scale(1.2000)"><g fill="#666666">
  <path d="m88.05,27.65c-3.15,4 -3.2,51.2 -0.05,54.35c2.75,2.75 71.7,3.15 74.45,0.45c2.85,-2.9 2.3,-53.85 -0.65,-55.9c-1.95,-1.35 -7.15,-1.55 -36.95,-1.55l-34.7,0l-2.1,2.65zm69.45,3.35c0.65,0 1,8.6 1,23.75l0,23.75l-33,0l-33,0l-0.25,-23c-0.15,-12.6 -0.1,-23.45 0.15,-24.1c0.35,-0.85 8.9,-1.05 32.25,-0.75c17.55,0.2 32.3,0.35 32.85,0.35z"/>
  <path d="m99.15,37.3c-6.85,7.35 4.25,17.35 11.4,10.25c1.35,-1.35 2.45,-3.65 2.45,-5.05c0,-6.45 -9.35,-9.95 -13.85,-5.2z"/>
  <path d="m135,42.5c-0.7,0.85 -5.25,5.15 -10.1,9.6l-8.85,8.1l-3.2,-3.2l-3.15,-3.15l-6.35,6.3c-5.55,5.5 -6.35,6.75 -6.35,10.05l0,3.8l28.5,0l28.5,0l0,-8.6l0,-8.55l-8.15,-7.7c-9.35,-8.85 -9.15,-8.7 -10.85,-6.65zm7.25,15.2c0.95,0.9 1.75,2.9 1.75,4.45c6.35,-5.05 4.75,-7.15 4.9,-11.55c0.95,0 0,0 0,0l-6.65,7.1z"/>
  <path d="m53.65,110.75c0.1,4.8 0.45,8.65 0.75,8.5c0.35,-0.15 1.3,-0.25 2.1,-0.25c1.1,0 1.5,-1.2 1.5,-4.75l0,-4.75l3.25,5c4.9,7.5 6.2,6.75 6.55,-3.75c0.25,-8.15 0.15,-8.75 -1.7,-8.75c-1.65,0 -2.05,0.8 -2.3,4.75l-0.3,4.75l-2.8,-4.75c-4.85,-8.25 -7.25,-6.9 -7.05,4z"/>
  <path d="m91,108.9c0,9.65 0.3,10.1 6.1,10.1c5.8,0 7.15,-2.65 1.65,-3.2l-3.25,-0.3l-0.3,-6.75c-0.25,-5.95 -0.55,-6.75 -2.25,-6.75c-1.75,0 -1.95,0.7 -1.95,6.9z"/>
  <path d="m151,102.45c0,0.25 1,2.15 2.25,4.2c1.2,2.1 2.45,5.8 2.75,8.25c0.65,5.9 4,6.95 4,1.25c0.05,-2.1 1.25,-5.85 2.95,-8.9l2.9,-5.25l-2.5,0c-1.8,0 -2.8,0.85 -3.75,3.1l-1.3,3.05l-1.25,-3.05c-1.1,-2.6 -6.05,-4.8 -6.05,-2.65z"/>
  <path d="m191,107.45c0,9.05 3.4,8.85 4.25,-0.2c0.45,-5 0.35,-5.25 -1.9,-5.25c-2.2,0 -2.35,0.4 -2.35,5.45z"/>
  <path d="m180.8,104.75c-1.3,5.35 0.65,13.6 3.45,14.35c2.3,0.6 2.75,0.4 2.75,-1.2c0,-1.05 -0.45,-1.9 -1,-1.9c-0.55,0 -1,-1.6 -1,-3.5c0,-1.95 0.45,-3.5 1,-3.5c0.55,0 1,-0.7 1,-1.5c0,-0.85 -0.45,-1.5 -1,-1.5c-0.55,0 -1,-0.7 -1,-1.5c0,-2.1 -3.65,-1.9 -4.2,0.25z"/>
  <path d="m71.55,106.55c-2.2,2.25 -2.05,9.7 0.3,11.8c4.5,4.1 10.15,0.75 10.15,-6.1c0,-4.85 -2,-7.25 -6,-7.25c-1.55,0 -3.55,0.7 -4.45,1.55zm6.25,5.8c0.25,3.05 0,3.65 -1.6,3.65c-2.3,0 -3.25,-2.65 -2.05,-5.85c1.25,-3.35 3.3,-2.1 3.65,2.2z"/>
  <path d="m105.75,106.1c-2.5,1.45 -2.45,9.95 0.1,12.25c4.3,3.9 10.15,0.35 10.15,-6.2c0,-6 -5.15,-9.05 -10.25,-6.05zm6.05,6.25c0.25,3.05 0,3.65 -1.6,3.65c-2.3,0 -3.25,-2.65 -2.05,-5.85c1.25,-3.35 3.3,-2.1 3.65,2.2z"/>
  <path d="m119.2,106.2c-3.8,3.8 -0.4,12.55 4.4,11.35c1.9,-0.45 2.45,-0.3 2.15,0.65c-0.25,0.7 -1.55,1.2 -2.85,1.1c-4.05,-0.3 -5.35,0.45 -3.85,2.25c0.85,1.05 2.6,1.45 5.35,1.25l4.1,-0.3l0.3,-8.75l0.3,-8.75l-4.35,0c-2.4,0 -4.9,0.55 -5.55,1.2zm6.6,4.45c0.4,2.85 -2.15,4.85 -3.75,2.95c-0.9,-1.1 -0.9,-2 -0.05,-3.6c1.35,-2.5 3.4,-2.15 3.8,0.65z"/>
  <path d="m133.55,106.55c-2.2,2.25 -2.05,9.7 0.3,11.8c4.5,4.1 10.15,0.75 10.15,-6.1c0,-4.85 -2,-7.25 -6,-7.25c-1.55,0 -3.55,0.7 -4.45,1.55zm6.25,5.8c0.25,3.05 0,3.65 -1.6,3.65c-2.3,0 -3.25,-2.65 -2.05,-5.85c1.25,-3.35 3.3,-2.1 3.65,2.2z"/>
  <path d="m167.65,106.85c-3.9,4.3 -0.75,13.15 4.7,13.15c2.4,0 5.65,-2.75 5.65,-4.85c0,-1.4 -2.65,-1.55 -3.5,-0.15c-0.95,1.55 -4.5,1.15 -4.5,-0.5c0,-1.1 1.1,-1.5 4,-1.5c3.15,0 4,-0.35 4,-1.8c0,-5.3 -6.85,-8.25 -10.35,-4.35z"/>
  <path d="m191,117.5c0,2.15 0.4,2.6 2.25,2.3c1.5,-0.2 2.25,-1 2.25,-2.3c0,-1.3 -0.75,-2.1 -2.25,-2.3c-1.85,-0.3 -2.25,0.15 -2.25,2.3z"/>
 </g></g></g>
</g>
<defs>
<linearGradient id="paint0_linear_0_1" x1="0" y1="198" x2="1584" y2="198" gradientUnits="userSpaceOnUse">
<stop stop-color="#3D052C"/>
<stop offset="1"/>
</linearGradient>
<linearGradient id="paint1_linear_0_1" x1="323" y1="-224" x2="323" y2="352" gradientUnits="userSpaceOnUse">
<stop stop-color="#28F6F2" stop-opacity="0.4"/>
<stop offset="1" stop-color="#17908E" stop-opacity="0.7"/>
</linearGradient>
<linearGradient id="paint2_linear_0_1" x1="148.5" y1="38" x2="148.5" y2="140" gradientUnits="userSpaceOnUse">
<stop stop-color="white"/>
<stop offset="1" stop-color="#999999"/>
</linearGradient>
<linearGradient id="paint3_linear_0_1" x1="38" y1="260" x2="26" y2="260" gradientUnits="userSpaceOnUse">
<stop stop-color="#D9D9D9"/>
<stop offset="1" stop-color="#737373"/>
</linearGradient>
<linearGradient id="paint4_linear_0_1" x1="38" y1="97.5" x2="26" y2="97.5" gradientUnits="userSpaceOnUse">
<stop stop-color="#D9D9D9"/>
<stop offset="1" stop-color="#737373"/>
</linearGradient>
<linearGradient id="paint5_linear_0_1" x1="27.5" y1="434.5" x2="148.5" y2="787" gradientUnits="userSpaceOnUse">
<stop stop-color="#2E21BC"/>
<stop offset="1" stop-color="#150F56"/>
</linearGradient>
<clipPath id="clip0_0_1">
<rect width="1584" height="396" fill="white"/>
</clipPath>
</defs>
</svg>
